<svg id="Capa_1" data-name="Capa 1" xmlns="http://www.w3.org/2000/svg" viewBox="0 0 685.9 181.56"><defs><style>.cls-1{fill:#fff;}</style></defs><path class="cls-1" d="M35.81,121.4v2.84H1.66V121.4c6.33-1.83,6.67-8.82,6.67-17.32V19.82C8.33,14,6.66,11.49,0,9V6.16L29.14,0V104.08C29.14,113.24,30,119.91,35.81,121.4Z"/><path class="cls-1" d="M220.65,86.43c0,26.81-17.66,39.3-41,39.3-7.66,0-14.66-1.83-19.82-5.16v28.81c0,9.33,1,27.85,6.83,29.35v2.83H132.55v-2.83c6.33-1.83,6.66-20.85,6.66-29.35V64.62c0-5.67-1.66-6.83-8.33-9.33V52.46l29-6.66V59.29c5.33-9.83,17.49-13.49,25.31-13.49C204,45.8,220.65,60.29,220.65,86.43Zm-23.82,1.5c0-26.81-6.33-36-19.82-36-10,0-16,8-17.15,18v30.47c1.5,17,11,22.48,19.49,22.48C191.5,122.9,196.83,113.24,196.83,87.93Z"/><path class="cls-1" d="M451,124.24H416.64V121.4c6.33-1.83,6.66-9,6.66-17.48V71.61c0-9.32-4.66-13.82-12.16-13.82C405,57.79,398,65.28,398,71.94v32c0,9.16.83,16,6.83,17.48v2.84H370.51V121.4c6.33-1.83,6.66-9,6.66-17.48V71.61c0-9.32-4.49-13.82-12-13.82-6.16,0-13.32,7.66-13.32,13.65v32.81c0,9.16,1,15.49,6.83,17.15v2.84H324.55V121.4c6.32-1.83,6.49-8.65,6.49-17.15V67.78c0-5.83-1.5-8.83-8.33-12.49V52.46l29.15-6.66V63c4.5-9.66,14.65-17.15,25.15-17.15,11.65,0,18.81,5.33,20.81,17.65,3.5-10.16,14.82-17.65,25.32-17.65,13,0,21,5.16,21,25.31v32.81c0,9.16.83,16,6.83,17.48Z"/><path class="cls-1" d="M533.87,84.27h-53c1.33,16.32,9.66,24.81,20.82,27.31,9,2,22.31-1.33,26.48-9.16l2.83,1.5c-2.67,8.66-12.49,21.81-34.81,21.81-21.81,0-36.8-20.15-36.8-39.63,0-23.48,16-40.3,39-40.3C522.55,45.8,533.87,58.29,533.87,84.27Zm-20.32-2.83c0-21-6.82-32.81-16-32.81-9.83,0-16.66,16.82-16.66,32.81Z"/><path class="cls-1" d="M595.48,108.08l2.5,1.5c-3.33,7.83-13.49,16.15-24.65,16.15-13.15,0-21-5.32-21-25.48V50.13H544l-.5-2.83h8.83V25l20.81-3.5V47.3H593l-.66,2.83H573.16V99.76c0,9.32,4,14.15,12.33,14.15A12.23,12.23,0,0,0,595.48,108.08Z"/><path class="cls-1" d="M683.07,112.75l2.83,1.16c-1.33,5.33-9,11.82-19.48,11.82,0,0-14.82,0-16.66-13.48-2.49,7.32-12.32,13.48-24.14,13.48,0,0-19.16,0-19.16-17,0-18.15,14-19.82,43.14-27.15V71.28c0-17.32-9.66-26-21.15-20-5.33,2.67-6,5.5-4.83,5.67a8.57,8.57,0,0,1,6.16,3.66,9.43,9.43,0,0,1-2.5,13.16,9.56,9.56,0,0,1-13.15-2.5,9.81,9.81,0,0,1-.5-10c1.66-2.84,3.83-7.33,13-12.16,7.49-4,16.15-3.33,16.15-3.33,21.82,0,27.81,13.65,27.81,33.3v24.82s-.17,11.66,8,11.66C678.57,115.58,682.07,115.58,683.07,112.75ZM649.6,84.6c-16.32,3.66-21.82,11.49-21.82,20,0,0,0,11,10.83,11,5.66,0,9.49-4.5,11-8.5Z"/><path class="cls-1" d="M244.69,18.59c-.05.41-1.07,10.25,3.4,16.7,4.68,6.76,12.59,6.18,12.92,6.15a1.38,1.38,0,0,0,1.15-.8c.14-.3,3.47-7.5-1.21-14.25-4.48-6.46-14-9-14.45-9.06a1.43,1.43,0,0,0-1.81,1.26Zm0,0"/><path class="cls-1" d="M268.86,122c-7-2.7-9.09-12-9.09-36.2,0-23.63,2-33,8.56-36l-2.15-3.2c-19.84,3.67-30.89,19.88-30.89,39.19S246.62,121.61,266.9,125Z"/><path class="cls-1" d="M285.36,47,283,50.63c5.35,3.73,6.91,13.43,6.91,35.14,0,22.75-1.71,32.31-7.71,35.63l2.28,3.38c19.42-4,30.07-20.11,30.07-39S304.22,51.2,285.36,47Z"/><path class="cls-1" d="M123.73,112.75c-1,2.83-4.49,2.83-4.49,2.83-8.16,0-8-11.66-8-11.66V79.1c0-19.65-6-33.3-27.81-33.3A34.81,34.81,0,0,0,72,47.2l1,2.6C82.72,47.46,90.26,56,90.26,71.28V81.6c-29.14,7.33-43.13,9-43.13,27.15,0,17,19.15,17,19.15,17,11.82,0,21.65-6.16,24.14-13.48,1.84,13.48,16.66,13.48,16.66,13.48,10.49,0,18.15-6.49,19.48-11.82Zm-33.47-5.67c-1.5,4-5.33,8.5-11,8.5-10.83,0-10.83-11-10.83-11,0-8.5,5.5-16.33,21.82-20Z"/><path class="cls-1" d="M67.94,73.78a9.43,9.43,0,0,0,2.5-13.16A8.57,8.57,0,0,0,64.28,57c-1.11-.16-.51-4.19,4.12-6.73l-1-1.16-.11.06C58.12,54,56,58.45,54.29,61.29a9.81,9.81,0,0,0,.5,10A9.56,9.56,0,0,0,67.94,73.78Z"/></svg>